<svg width="442" height="433" viewBox="0 0 442 433" fill="none" xmlns="http://www.w3.org/2000/svg">
<path d="M220.766 380.995C315.327 380.995 391.984 376.519 391.984 370.999C391.984 365.478 315.327 361.002 220.766 361.002C126.206 361.002 49.5488 365.478 49.5488 370.999C49.5488 376.519 126.206 380.995 220.766 380.995Z" fill="#F5F5F5"/>
<path d="M321.821 148.187L313.061 144.655C313.061 144.655 301.501 165.733 298.19 166.802C293.686 168.25 284.361 172.277 278.833 172.983C278.082 173.866 276.855 176.613 276.97 177.611C284.396 180.092 300.715 176.798 304.212 174.202C312.169 168.312 321.821 148.187 321.821 148.187Z" fill="#E58A7B"/>
<path d="M324.514 143.392C326.148 149.423 317.299 161.556 317.299 161.556L305.705 155.057C305.705 155.057 307.877 150.068 310.526 144.99C314.774 136.786 322.651 136.513 324.514 143.392Z" fill="#4CAF4F"/>
<path opacity="0.2" d="M324.514 143.392C326.148 149.423 317.299 161.556 317.299 161.556L305.705 155.057C305.705 155.057 307.877 150.068 310.526 144.99C314.774 136.786 322.651 136.513 324.514 143.392Z" fill="black"/>
<path opacity="0.2" d="M310.306 157.653L314.871 160.214L315.675 146.2C313.017 148.24 311.144 154.386 310.306 157.653Z" fill="black"/>
<path d="M316.884 138.853C316.884 138.853 307.859 158.934 313.123 196.323H348.684C349.249 190.865 347.377 164.232 354.15 138.517C350.249 137.755 346.302 137.25 342.334 137.007C337.302 136.716 332.257 136.716 327.225 137.007C323.737 137.361 320.28 137.978 316.884 138.853Z" fill="#4CAF4F"/>
<path opacity="0.2" d="M316.884 138.853C316.884 138.853 307.859 158.934 313.123 196.323H348.684C349.249 190.865 347.377 164.232 354.15 138.517C350.249 137.755 346.302 137.25 342.334 137.007C337.302 136.716 332.257 136.716 327.225 137.007C323.737 137.361 320.28 137.978 316.884 138.853Z" fill="black"/>
<g style="mix-blend-mode:multiply">
<path d="M308.637 372.229C308.584 373.183 322.068 373.951 338.749 373.951C355.43 373.951 369.012 373.183 369.065 372.229C369.118 371.276 355.642 370.516 338.952 370.516C322.262 370.516 308.698 371.285 308.637 372.229Z" fill="#E8ECF1"/>
</g>
<path d="M332.374 347.171L326.067 349.612L331.5 363.647L337.807 361.206L332.374 347.171Z" fill="#E58A7B"/>
<path d="M360.499 365.439H353.849L351.412 350.047H358.062L360.499 365.439Z" fill="#E58A7B"/>
<path d="M353.39 364.67H360.861C360.991 364.671 361.116 364.717 361.215 364.801C361.313 364.885 361.379 365.002 361.4 365.13L362.362 371.037C362.383 371.186 362.371 371.336 362.327 371.48C362.284 371.623 362.211 371.755 362.112 371.867C362.013 371.98 361.891 372.069 361.755 372.13C361.618 372.191 361.47 372.222 361.32 372.221C358.715 372.176 357.461 372.018 354.176 372.018C352.154 372.018 347.995 372.229 345.187 372.229C342.378 372.229 342.193 369.474 343.35 369.218C348.542 368.097 350.556 366.569 352.286 365.085C352.592 364.817 352.984 364.67 353.39 364.67Z" fill="#263238"/>
<path d="M331.314 362.392L338.378 360.326C338.504 360.29 338.639 360.299 338.759 360.35C338.88 360.402 338.979 360.493 339.04 360.608L341.69 365.907C341.751 366.041 341.783 366.187 341.782 366.335C341.781 366.483 341.748 366.629 341.685 366.763C341.622 366.896 341.53 367.015 341.417 367.109C341.303 367.204 341.17 367.273 341.027 367.311C338.458 368.017 336.736 368.45 333.521 369.386C331.305 370.031 329.044 371.081 326.854 371.779C325.335 372.265 321.768 372.282 319.922 372.282C317.193 372.282 316.584 369.404 317.759 369.271C320.717 368.944 321.114 369.095 322.748 368.273C325.421 367.105 327.844 365.432 329.883 363.346C330.268 362.907 330.761 362.579 331.314 362.392Z" fill="#263238"/>
<path d="M279.946 172.948L272.634 169.884L269.623 177.99C272.62 178.447 275.668 178.447 278.665 177.99L279.946 172.948Z" fill="#E58A7B"/>
<path d="M267.194 169.672L267 175.059L269.623 177.973L272.634 169.866L267.194 169.672Z" fill="#E58A7B"/>
<path d="M333.239 348.362L326.912 350.805L329.714 358.063L336.041 355.62L333.239 348.362Z" fill="#CF6F64"/>
<path d="M358.062 350.047H351.412L352.675 357.986H359.324L358.062 350.047Z" fill="#CF6F64"/>
<path opacity="0.2" d="M311.992 186.212C312.125 187.81 312.275 189.444 312.469 191.122L338.908 182.538C343.037 181.314 346.625 178.72 349.081 175.182C349.187 172.824 349.319 170.343 349.522 167.756C349.611 166.502 349.717 165.212 349.832 163.905C349.946 162.598 350.105 161.15 350.273 159.755L311.992 186.212Z" fill="black"/>
<path d="M320.629 157.247L319.745 157.141C320.266 152.726 323.56 149.247 327.031 149.335V150.218C323.993 150.156 321.097 153.291 320.629 157.247Z" fill="white"/>
<path d="M325.335 165.398H325.185V164.515C328.223 164.63 331.075 161.459 331.543 157.512L332.426 157.618C331.958 161.936 328.77 165.398 325.335 165.398Z" fill="white"/>
<path d="M341.84 119.991C340.595 124.856 339.129 133.766 342.334 137.007C342.334 137.007 340.091 141.944 331.058 141.944C322.801 141.944 327.225 137.007 327.225 137.007C332.718 135.718 332.815 131.709 332.091 127.912L341.84 119.991Z" fill="#E58A7B"/>
<path d="M337.866 123.223L332.1 127.912C332.278 128.784 332.382 129.671 332.409 130.561C334.095 132.239 337.477 127.991 337.822 125.819C337.997 124.964 338.012 124.083 337.866 123.223Z" fill="#CF6F64"/>
<path d="M322.183 119.929C322.584 120.624 323.124 121.229 323.77 121.706C324.416 122.184 325.153 122.522 325.936 122.702C328.055 123.17 329.115 121.218 328.532 119.258C328.011 117.491 326.271 115.116 324.117 115.522C323.655 115.617 323.223 115.822 322.857 116.118C322.49 116.414 322.2 116.794 322.011 117.226C321.822 117.657 321.738 118.128 321.768 118.598C321.798 119.068 321.94 119.525 322.183 119.929Z" fill="#CF6F64"/>
<path d="M325.689 104.36C322.386 105.87 321.22 118.993 325.371 120.935C329.521 122.878 331.941 101.49 325.689 104.36Z" fill="#263238"/>
<path d="M342.846 112.67C342.052 119.258 341.963 123.134 338.431 126.508C337.337 127.627 335.954 128.422 334.436 128.805C332.918 129.188 331.324 129.145 329.829 128.679C328.334 128.213 326.997 127.343 325.966 126.165C324.935 124.987 324.249 123.547 323.984 122.004C322.916 116.087 324.39 106.312 330.996 103.689C332.384 103.077 333.91 102.847 335.416 103.024C336.923 103.2 338.355 103.776 339.564 104.692C340.773 105.608 341.715 106.831 342.292 108.234C342.869 109.637 343.061 111.168 342.846 112.67Z" fill="#E58A7B"/>
<path d="M331.994 107.769C336.886 106.524 340.48 105.676 339.191 109.747C337.486 115.187 335.438 120.45 338.184 120.688C339.862 120.838 347.28 117.695 346.335 114.507C345.513 111.734 348.984 110.974 349.602 109.57C351.889 104.484 345.346 105.155 346.511 102.064C347.677 98.9736 341.213 93.9931 337.681 96.4745C331.932 100.484 322.068 100.422 327.252 93.8253C330.969 89.1186 324.337 90.0811 324.337 90.0811C324.337 90.0811 328.347 92.4566 321.6 96.1301C314.465 100.051 321.008 110.586 331.994 107.769Z" fill="#263238"/>
<path d="M345.443 119.929C344.477 121.326 343.026 122.315 341.372 122.702C339.191 123.17 338.352 121.218 339.173 119.258C339.906 117.491 341.919 115.116 344.003 115.522C346.087 115.928 346.564 118.198 345.443 119.929Z" fill="#E58A7B"/>
<path d="M313.122 196.323C313.122 196.323 307.153 249.748 306.685 270.023C306.208 291.111 326.916 356.908 326.916 356.908L337.513 352.493C337.513 352.493 325.15 292.374 326.916 271.666C328.788 249.086 336.524 196.358 336.524 196.358L313.122 196.323Z" fill="#4CAF4F"/>
<path opacity="0.2" d="M327.958 210.99C323.198 220.863 326.404 240.388 328.982 251.956C329.963 243.787 331.128 234.922 332.232 226.718C332.126 214.108 331.146 204.367 327.958 210.99Z" fill="black"/>
<path d="M337.045 348.996C337.098 348.996 338.299 352.369 338.299 352.369L326.077 357.509L324.152 353.923L337.045 348.996Z" fill="#4CAF4F"/>
<path d="M325.742 196.323C325.742 196.323 330.307 247.134 333.327 266.164C336.647 287.014 349.664 356.449 349.664 356.449H361.841C361.841 356.449 354.547 288.7 353.17 268.054C351.668 245.66 348.684 196.323 348.684 196.323H325.742Z" fill="#4CAF4F"/>
<path d="M362.027 353.279C362.08 353.279 362.433 356.679 362.433 356.679H349.046L348.092 352.776L362.027 353.279Z" fill="#4CAF4F"/>
<path opacity="0.2" d="M357.364 349.252C357.337 349.252 357.31 349.243 357.289 349.225C357.268 349.207 357.254 349.182 357.249 349.155C357.179 348.537 350.6 287.34 349.364 268.796C348.021 248.68 345.319 204.058 345.293 203.608C345.291 203.593 345.293 203.579 345.298 203.565C345.303 203.551 345.31 203.538 345.32 203.527C345.33 203.517 345.342 203.508 345.356 203.502C345.369 203.496 345.384 203.493 345.399 203.493C345.428 203.493 345.456 203.504 345.477 203.524C345.498 203.543 345.511 203.57 345.513 203.599C345.513 204.05 348.242 248.636 349.584 268.787C350.821 287.331 357.399 348.484 357.461 349.146C357.464 349.161 357.463 349.176 357.46 349.19C357.456 349.204 357.449 349.218 357.44 349.229C357.431 349.241 357.42 349.251 357.406 349.258C357.393 349.265 357.379 349.269 357.364 349.27V349.252Z" fill="black"/>
<path d="M332.744 114.507C332.744 115.045 332.409 115.478 332.055 115.478C331.702 115.478 331.446 115.045 331.481 114.507C331.517 113.968 331.817 113.535 332.17 113.535C332.523 113.535 332.78 113.977 332.744 114.507Z" fill="#263238"/>
<path d="M326.686 114.507C326.686 115.045 326.342 115.478 325.998 115.478C325.653 115.478 325.388 115.045 325.415 114.507C325.441 113.968 325.759 113.535 326.112 113.535C326.466 113.535 326.722 113.977 326.686 114.507Z" fill="#263238"/>
<path d="M328.594 114.78C327.857 116.425 326.907 117.966 325.768 119.364C326.651 120.247 328.302 119.84 328.302 119.84L328.594 114.78Z" fill="#DF5753"/>
<path d="M328.753 122.092C328.732 122.092 328.712 122.088 328.693 122.08C328.674 122.072 328.657 122.06 328.643 122.045C328.629 122.03 328.618 122.013 328.611 121.993C328.604 121.974 328.601 121.954 328.603 121.933C328.605 121.89 328.624 121.85 328.655 121.82C328.686 121.791 328.727 121.774 328.77 121.774C329.446 121.779 330.114 121.632 330.725 121.345C331.336 121.058 331.875 120.637 332.303 120.114C332.333 120.087 332.372 120.073 332.413 120.073C332.454 120.073 332.493 120.087 332.523 120.114C332.552 120.144 332.568 120.183 332.568 120.225C332.568 120.266 332.552 120.305 332.523 120.335C332.066 120.891 331.49 121.337 330.837 121.641C330.185 121.945 329.473 122.099 328.753 122.092Z" fill="#263238"/>
<path d="M333.822 112.882C333.779 112.904 333.732 112.915 333.685 112.915C333.637 112.915 333.59 112.904 333.548 112.882C333.217 112.668 332.842 112.535 332.45 112.494C332.059 112.453 331.664 112.504 331.296 112.643C331.26 112.661 331.221 112.672 331.181 112.674C331.141 112.677 331.101 112.672 331.063 112.658C331.025 112.645 330.99 112.625 330.961 112.598C330.931 112.571 330.907 112.538 330.89 112.502C330.857 112.424 330.856 112.335 330.888 112.256C330.919 112.177 330.98 112.113 331.058 112.078C331.519 111.89 332.02 111.815 332.516 111.861C333.013 111.908 333.491 112.073 333.91 112.343C333.944 112.366 333.973 112.396 333.995 112.43C334.017 112.464 334.033 112.503 334.04 112.543C334.047 112.583 334.047 112.624 334.038 112.664C334.029 112.704 334.013 112.742 333.989 112.776C333.945 112.826 333.886 112.863 333.822 112.882Z" fill="#263238"/>
<path d="M324.346 111.116C324.299 111.104 324.256 111.08 324.223 111.045C324.193 111.016 324.17 110.982 324.154 110.944C324.138 110.906 324.13 110.865 324.13 110.824C324.13 110.783 324.138 110.742 324.154 110.705C324.17 110.667 324.193 110.632 324.223 110.604C324.561 110.224 324.983 109.928 325.454 109.738C325.926 109.548 326.435 109.469 326.942 109.509C326.983 109.515 327.022 109.529 327.057 109.551C327.092 109.573 327.121 109.602 327.145 109.636C327.168 109.67 327.184 109.708 327.192 109.749C327.199 109.789 327.199 109.83 327.19 109.871C327.171 109.952 327.123 110.024 327.054 110.073C326.986 110.122 326.902 110.144 326.819 110.136C326.418 110.11 326.016 110.177 325.644 110.33C325.272 110.483 324.94 110.718 324.673 111.019C324.633 111.063 324.581 111.096 324.523 111.113C324.466 111.13 324.404 111.131 324.346 111.116Z" fill="#263238"/>
<path d="M357.567 147.207L348.383 144.761C348.383 144.761 339.376 166.934 336.188 168.374C331.861 170.352 320.902 177.204 316.24 180.445C315.984 181.549 316.187 184.472 316.77 185.276C324.717 183.827 339.932 177.973 343.111 174.997C350.361 168.206 357.567 147.207 357.567 147.207Z" fill="#E58A7B"/>
<path d="M351.156 365.836C350.708 365.871 350.261 365.75 349.893 365.492C349.78 365.389 349.695 365.258 349.647 365.113C349.599 364.967 349.589 364.812 349.62 364.662C349.625 364.568 349.656 364.477 349.709 364.399C349.762 364.322 349.835 364.26 349.92 364.22C350.662 363.84 352.737 365.156 352.975 365.306C353.001 365.322 353.022 365.347 353.033 365.375C353.044 365.404 353.046 365.436 353.037 365.465C353.03 365.496 353.014 365.524 352.993 365.547C352.971 365.571 352.944 365.588 352.913 365.598C352.338 365.739 351.749 365.819 351.156 365.836ZM350.273 364.458C350.206 364.444 350.137 364.444 350.07 364.458C350.036 364.476 350.008 364.502 349.989 364.535C349.97 364.568 349.962 364.606 349.964 364.644C349.94 364.747 349.944 364.854 349.975 364.955C350.006 365.055 350.063 365.146 350.141 365.218C350.485 365.527 351.35 365.562 352.49 365.341C351.811 364.895 351.047 364.594 350.247 364.458H350.273Z" fill="#4CAF4F"/>
<path d="M352.869 365.598C352.846 365.605 352.822 365.605 352.799 365.598C352.136 365.227 350.891 363.77 351.077 363.028C351.104 362.91 351.171 362.805 351.265 362.73C351.36 362.655 351.477 362.614 351.598 362.613C351.716 362.597 351.837 362.607 351.951 362.642C352.065 362.677 352.171 362.736 352.26 362.816C352.993 363.443 353.037 365.368 353.037 365.465C353.041 365.494 353.036 365.524 353.021 365.549C353.007 365.575 352.985 365.595 352.958 365.606C352.928 365.612 352.897 365.609 352.869 365.598ZM351.686 362.904H351.624C351.421 362.904 351.395 363.019 351.386 363.063C351.28 363.496 352.066 364.6 352.719 365.121C352.716 364.375 352.485 363.648 352.057 363.037C351.954 362.947 351.822 362.9 351.686 362.904Z" fill="#4CAF4F"/>
<path d="M327.711 364.732C327.17 364.921 326.582 364.921 326.042 364.732C325.919 364.666 325.815 364.569 325.739 364.452C325.664 364.335 325.619 364.2 325.609 364.061C325.598 363.974 325.609 363.885 325.641 363.803C325.674 363.721 325.727 363.649 325.794 363.593C326.501 362.957 329.389 363.593 329.715 363.717C329.746 363.725 329.774 363.743 329.793 363.769C329.812 363.794 329.822 363.826 329.821 363.858C329.823 363.891 329.814 363.924 329.797 363.952C329.78 363.98 329.754 364.003 329.724 364.017C329.074 364.31 328.4 364.55 327.711 364.732ZM326.271 363.681C326.17 363.702 326.076 363.747 325.998 363.814C325.969 363.835 325.948 363.863 325.935 363.896C325.923 363.929 325.92 363.965 325.927 363.999C325.933 364.092 325.962 364.182 326.011 364.26C326.06 364.339 326.129 364.404 326.21 364.45C326.678 364.697 327.764 364.503 329.168 363.911C328.222 363.672 327.243 363.595 326.271 363.681Z" fill="#4CAF4F"/>
<path d="M329.698 364.017H329.627C328.744 363.858 326.978 362.842 326.925 362.083C326.925 361.906 327.004 361.659 327.428 361.518C327.571 361.467 327.723 361.445 327.875 361.454C328.027 361.463 328.175 361.503 328.311 361.571C329.265 362.039 329.768 363.734 329.795 363.814C329.801 363.841 329.8 363.868 329.792 363.895C329.785 363.921 329.77 363.945 329.751 363.964C329.737 363.986 329.719 364.004 329.698 364.017ZM327.605 361.783H327.516C327.243 361.88 327.243 361.995 327.243 362.03C327.243 362.489 328.523 363.328 329.415 363.611C329.21 362.901 328.775 362.28 328.179 361.845C328.001 361.754 327.797 361.732 327.605 361.783Z" fill="#4CAF4F"/>
<path d="M316.99 179.924L307.78 184.163L306.711 186.812L310.111 189.099C310.111 189.099 316.469 188.41 318.28 184.322L316.99 179.924Z" fill="#E58A7B"/>
<path d="M317.379 185.426C317.173 183.656 316.589 181.951 315.666 180.428L317.123 179.333C318.219 181.088 318.918 183.062 319.172 185.117L317.379 185.426Z" fill="#263238"/>
<path d="M318.951 181.178C319.145 181.484 319.241 181.843 319.225 182.206C319.208 182.568 319.081 182.917 318.859 183.204C318.637 183.492 318.333 183.704 317.986 183.812C317.64 183.92 317.268 183.919 316.923 183.808C316.577 183.698 316.274 183.483 316.054 183.194C315.835 182.905 315.709 182.556 315.695 182.193C315.682 181.83 315.78 181.472 315.977 181.168C316.174 180.863 316.46 180.626 316.796 180.489C317.173 180.297 317.612 180.262 318.015 180.391C318.419 180.52 318.755 180.803 318.951 181.178Z" fill="#263238"/>
<path d="M301.554 187.589L302.782 188.825L311.047 185.293L307.78 184.163L301.554 187.589Z" fill="#E58A7B"/>
<path opacity="0.2" d="M337.045 348.996C337.098 348.996 338.299 352.369 338.299 352.369L326.077 357.509L324.152 353.923L337.045 348.996Z" fill="black"/>
<path opacity="0.2" d="M362.027 353.279C362.08 353.279 362.433 356.679 362.433 356.679H349.046L348.092 352.776L362.027 353.279Z" fill="black"/>
<path d="M359.96 144.663C362.389 152.496 352.896 163.208 352.896 163.208L339.782 157.856C341.337 153.329 343.129 148.887 345.151 144.549C349.178 135.868 357.505 136.76 359.96 144.663Z" fill="#4CAF4F"/>
<path opacity="0.2" d="M359.96 144.663C362.389 152.496 352.896 163.208 352.896 163.208L339.782 157.856C341.337 153.329 343.129 148.887 345.151 144.549C349.178 135.868 357.505 136.76 359.96 144.663Z" fill="black"/>
<path d="M216.245 65.7493H210.602V66.6589H216.245V65.7493Z" fill="#4CAF4F"/>
<path d="M289.291 101.749L288.608 116.905L289.516 116.945L290.199 101.79L289.291 101.749Z" fill="#4CAF4F"/>
<path d="M287.535 69.8291H183.333L173.637 286.816H277.839L287.535 69.8291Z" fill="#4CAF4F"/>
<path opacity="0.56" d="M284.427 72.8138H180.225L170.529 289.801H274.731L284.427 72.8138Z" fill="#FAFAFA"/>
<path opacity="0.07" d="M281.318 75.7898H177.117L167.412 292.777H271.613L281.318 75.7898Z" fill="#4CAF4F"/>
<path d="M269.459 170.428H180.516L179.775 187.03H268.717L269.459 170.428Z" fill="white"/>
<path d="M229.429 158.312H181.055L180.728 165.739H229.103L229.429 158.312Z" fill="#4CAF4F"/>
<path d="M267.454 215.235H178.512L177.77 231.836H266.712L267.454 215.235Z" fill="white"/>
<path opacity="0.47" d="M251.144 254.257H191.334L190.442 274.153H250.252L251.144 254.257Z" fill="#4CAF4F"/>
<path d="M247.144 277.244H187.334C187.308 277.25 187.28 277.25 187.254 277.244C187.245 277.218 187.245 277.19 187.254 277.164L188.137 257.26C188.137 257.246 188.14 257.233 188.145 257.22C188.151 257.208 188.159 257.197 188.169 257.188C188.179 257.179 188.19 257.172 188.203 257.167C188.216 257.163 188.23 257.161 188.243 257.163H248.053C248.064 257.157 248.076 257.154 248.089 257.154C248.101 257.154 248.113 257.157 248.124 257.163C248.13 257.173 248.133 257.186 248.133 257.198C248.133 257.21 248.13 257.223 248.124 257.233L247.258 277.182C247.248 277.202 247.231 277.219 247.211 277.231C247.19 277.242 247.167 277.246 247.144 277.244ZM187.44 277.032H247.038L247.921 257.339H188.323L187.44 277.032Z" fill="white"/>
<path d="M218.983 203.119H179.05L178.724 210.554H218.647L218.983 203.119Z" fill="#4CAF4F"/>
<path d="M250.005 116.799C249.776 121.631 248.058 126.273 245.086 130.089C242.886 132.972 240.054 135.312 236.809 136.93C233.564 138.548 229.991 139.401 226.365 139.423C223.435 139.446 220.531 138.868 217.832 137.726C215.134 136.583 212.698 134.9 210.674 132.781C208.651 130.661 207.083 128.15 206.066 125.401C205.05 122.653 204.607 119.725 204.765 116.799C205.076 110.727 207.694 105.003 212.085 100.798C216.476 96.5927 222.308 94.2235 228.387 94.1752C231.32 94.1478 234.227 94.7221 236.929 95.8626C239.63 97.003 242.07 98.6853 244.096 100.806C246.122 102.926 247.691 105.439 248.708 108.19C249.724 110.941 250.165 113.871 250.005 116.799Z" fill="white"/>
<path d="M252.133 98.9085C252.075 100.193 251.618 101.428 250.826 102.441C250.24 103.206 249.486 103.828 248.623 104.258C247.76 104.688 246.81 104.915 245.846 104.922C244.911 104.928 243.99 104.705 243.162 104.272C242.333 103.84 241.624 103.211 241.095 102.441C240.394 101.4 240.047 100.162 240.106 98.9085C240.191 97.2963 240.888 95.7775 242.055 94.6617C243.221 93.5459 244.77 92.9171 246.384 92.9036C247.163 92.8965 247.935 93.0489 248.653 93.3515C249.37 93.6541 250.018 94.1005 250.557 94.663C251.096 95.2256 251.513 95.8925 251.784 96.6227C252.055 97.3528 252.174 98.1307 252.133 98.9085Z" fill="#4CAF4F"/>
<path d="M190.098 178.729C190.055 179.44 189.745 180.109 189.228 180.601C188.712 181.093 188.029 181.37 187.316 181.378C186.972 181.382 186.63 181.316 186.313 181.182C185.995 181.049 185.709 180.853 185.47 180.604C185.232 180.356 185.047 180.061 184.927 179.739C184.807 179.416 184.755 179.072 184.773 178.729C184.811 178.016 185.12 177.344 185.637 176.852C186.154 176.359 186.84 176.083 187.554 176.08C187.898 176.077 188.239 176.144 188.556 176.278C188.873 176.411 189.159 176.608 189.397 176.856C189.635 177.104 189.82 177.398 189.94 177.72C190.061 178.042 190.114 178.385 190.098 178.729Z" fill="#263238"/>
<path d="M202.001 178.729C201.961 179.441 201.651 180.111 201.134 180.603C200.618 181.095 199.933 181.372 199.22 181.378C198.876 181.381 198.536 181.313 198.219 181.18C197.903 181.046 197.617 180.849 197.38 180.601C197.143 180.353 196.958 180.059 196.839 179.737C196.719 179.415 196.667 179.072 196.685 178.729C196.723 178.017 197.032 177.347 197.547 176.855C198.062 176.362 198.746 176.085 199.458 176.08C199.802 176.075 200.144 176.142 200.461 176.275C200.778 176.408 201.065 176.605 201.304 176.853C201.542 177.101 201.727 177.396 201.847 177.719C201.967 178.041 202.019 178.385 202.001 178.729Z" fill="#263238"/>
<path d="M213.914 178.729C213.873 179.441 213.563 180.111 213.047 180.603C212.53 181.095 211.846 181.372 211.132 181.378C210.788 181.381 210.448 181.313 210.131 181.18C209.814 181.046 209.528 180.85 209.29 180.601C209.051 180.353 208.867 180.059 208.746 179.737C208.626 179.415 208.572 179.072 208.589 178.729C208.629 178.016 208.939 177.346 209.456 176.854C209.973 176.362 210.657 176.085 211.371 176.08C211.715 176.075 212.056 176.142 212.374 176.275C212.691 176.408 212.978 176.605 213.216 176.853C213.455 177.101 213.639 177.396 213.759 177.719C213.879 178.041 213.932 178.385 213.914 178.729Z" fill="#263238"/>
<path d="M188.093 223.536C188.051 224.247 187.74 224.916 187.224 225.408C186.708 225.899 186.024 226.177 185.311 226.185C184.968 226.188 184.627 226.12 184.31 225.987C183.993 225.853 183.707 225.656 183.469 225.408C183.231 225.16 183.046 224.866 182.925 224.544C182.805 224.222 182.751 223.879 182.768 223.536C182.808 222.823 183.118 222.153 183.635 221.661C184.152 221.169 184.836 220.892 185.55 220.886C185.894 220.883 186.234 220.951 186.551 221.084C186.868 221.218 187.154 221.415 187.392 221.663C187.63 221.911 187.815 222.205 187.936 222.527C188.056 222.849 188.11 223.192 188.093 223.536Z" fill="#263238"/>
<path d="M199.997 223.536C199.956 224.246 199.648 224.915 199.133 225.407C198.618 225.899 197.936 226.177 197.224 226.185C196.88 226.189 196.538 226.122 196.221 225.989C195.904 225.856 195.617 225.659 195.378 225.411C195.14 225.163 194.955 224.868 194.835 224.546C194.715 224.223 194.663 223.879 194.681 223.536C194.721 222.823 195.031 222.153 195.548 221.661C196.064 221.169 196.749 220.892 197.462 220.886C197.806 220.883 198.146 220.951 198.463 221.084C198.779 221.218 199.065 221.415 199.302 221.663C199.539 221.911 199.724 222.206 199.843 222.528C199.963 222.85 200.015 223.193 199.997 223.536Z" fill="#263238"/>
<path d="M211.936 223.536C211.895 224.248 211.585 224.918 211.069 225.41C210.552 225.902 209.868 226.179 209.154 226.185C208.811 226.186 208.47 226.118 208.154 225.984C207.838 225.85 207.552 225.653 207.314 225.406C207.077 225.158 206.892 224.864 206.771 224.543C206.65 224.221 206.595 223.879 206.611 223.536C206.653 222.824 206.964 222.155 207.48 221.663C207.996 221.172 208.68 220.894 209.393 220.886C209.737 220.882 210.078 220.949 210.395 221.082C210.713 221.215 211 221.412 211.238 221.66C211.476 221.908 211.661 222.203 211.781 222.525C211.901 222.848 211.954 223.192 211.936 223.536Z" fill="#263238"/>
<path d="M223.822 223.536C223.779 224.247 223.469 224.916 222.953 225.408C222.436 225.899 221.753 226.177 221.04 226.185C220.697 226.186 220.357 226.118 220.04 225.984C219.724 225.85 219.438 225.653 219.201 225.405C218.963 225.158 218.778 224.864 218.657 224.543C218.536 224.221 218.481 223.879 218.497 223.536C218.539 222.824 218.85 222.155 219.366 221.663C219.882 221.172 220.566 220.894 221.279 220.886C221.622 220.883 221.963 220.951 222.28 221.084C222.597 221.218 222.883 221.415 223.121 221.663C223.359 221.911 223.544 222.205 223.665 222.527C223.785 222.849 223.839 223.192 223.822 223.536Z" fill="#263238"/>
<path d="M235.779 223.536C235.736 224.247 235.426 224.916 234.909 225.408C234.393 225.899 233.71 226.177 232.997 226.185C232.653 226.189 232.311 226.122 231.994 225.989C231.677 225.856 231.39 225.659 231.151 225.411C230.913 225.163 230.728 224.868 230.608 224.546C230.488 224.223 230.436 223.879 230.454 223.536C230.494 222.823 230.804 222.153 231.321 221.661C231.837 221.169 232.522 220.892 233.235 220.886C233.579 220.883 233.92 220.951 234.237 221.084C234.554 221.218 234.84 221.415 235.078 221.663C235.316 221.911 235.501 222.205 235.621 222.527C235.742 222.849 235.795 223.192 235.779 223.536Z" fill="#263238"/>
<path d="M233.971 115.621C237.667 112.007 237.864 106.213 234.409 102.681C230.955 99.1486 225.159 99.2153 221.463 102.83C217.766 106.444 217.57 112.238 221.025 115.77C224.479 119.302 230.275 119.235 233.971 115.621Z" fill="#4CAF4F"/>
<path d="M245.086 130.089C242.886 132.972 240.054 135.312 236.809 136.93C233.564 138.548 229.991 139.401 226.365 139.424C222.849 139.453 219.379 138.617 216.262 136.99C213.145 135.362 210.477 132.992 208.492 130.089C212.784 125.815 219.574 123.025 227.098 123.025C234.622 123.025 241.174 125.815 245.086 130.089Z" fill="#4CAF4F"/>
<path opacity="0.1" d="M233.971 115.621C237.667 112.007 237.864 106.213 234.409 102.681C230.955 99.1486 225.159 99.2153 221.463 102.83C217.766 106.444 217.57 112.238 221.025 115.77C224.479 119.302 230.275 119.235 233.971 115.621Z" fill="white"/>
<path opacity="0.1" d="M245.086 130.089C242.886 132.972 240.054 135.312 236.809 136.93C233.564 138.548 229.991 139.401 226.365 139.424C222.849 139.453 219.379 138.617 216.262 136.99C213.145 135.362 210.477 132.992 208.492 130.089C212.784 125.815 219.574 123.025 227.098 123.025C234.622 123.025 241.174 125.815 245.086 130.089Z" fill="white"/>
<path d="M115.161 191.03C114.322 192.867 113.439 194.889 112.67 196.849C111.902 198.81 111.116 200.832 110.436 202.845C109.048 206.813 107.99 210.889 107.275 215.032L107.081 216.33C107.062 216.552 107.083 216.777 107.142 216.992C107.351 217.724 107.679 218.416 108.114 219.041C109.248 220.657 110.563 222.139 112.035 223.456C113.586 224.899 115.213 226.258 116.909 227.527C118.605 228.834 120.388 230.106 122.146 231.306L120.494 234.406C116.298 232.578 112.315 230.295 108.617 227.598C106.644 226.159 104.863 224.473 103.319 222.582C102.403 221.456 101.689 220.18 101.208 218.811C100.929 217.956 100.786 217.062 100.784 216.162C100.784 215.95 100.784 215.641 100.784 215.491V215.058L100.873 214.175C101.379 209.574 102.346 205.036 103.76 200.629C104.449 198.456 105.182 196.293 106.021 194.182C106.86 192.072 107.725 190.006 108.794 187.86L115.161 191.03Z" fill="#E58A7B"/>
<path d="M120.901 230.759L127.144 227.598L125.528 234.45C125.528 234.45 121.245 235.651 119.258 233.567L120.901 230.759Z" fill="#E58A7B"/>
<path d="M132.857 228.719L131.197 234.388L125.528 234.45L127.144 227.598L132.857 228.719Z" fill="#E58A7B"/>
<path d="M141.67 157.968C142.004 159.192 142.469 160.376 143.057 161.5C142.885 161.695 142.664 161.84 142.417 161.919C142.169 161.998 141.905 162.009 141.653 161.951L141.67 157.968Z" fill="#DF5753"/>
<path d="M141.485 158.021C141.851 158.021 142.147 157.566 142.147 157.005C142.147 156.444 141.851 155.99 141.485 155.99C141.119 155.99 140.823 156.444 140.823 157.005C140.823 157.566 141.119 158.021 141.485 158.021Z" fill="#263238"/>
<path d="M141.291 156.025L142.633 155.645C142.633 155.645 141.979 156.687 141.291 156.025Z" fill="#263238"/>
<path d="M124.424 164.45C125.228 168.556 126.031 176.088 123.152 178.835C123.152 178.835 124.283 183.003 131.921 183.003C140.319 183.003 135.93 178.835 135.93 178.835C131.347 177.74 131.462 174.34 132.266 171.143L124.424 164.45Z" fill="#E58A7B"/>
<path d="M122.19 155.089C122.614 161.951 122.649 164.865 126.111 168.388C131.33 173.686 139.666 171.673 141.299 164.856C142.774 158.674 141.838 148.501 135.118 145.773C133.643 145.165 132.037 144.944 130.453 145.13C128.868 145.316 127.357 145.903 126.063 146.836C124.769 147.768 123.734 149.016 123.056 150.46C122.378 151.904 122.08 153.498 122.19 155.089Z" fill="#E58A7B"/>
<path d="M122.87 147.371C119.426 148.625 114.834 147.689 116.635 158.312C118.543 169.563 115.611 173.263 115.611 173.263C115.611 173.263 128.672 176.044 142.006 173.095C142.006 173.095 137.935 165.977 139.074 160.732C140.531 154.109 139.383 151.663 139.383 151.663C139.383 151.663 127.709 145.605 122.87 147.371Z" fill="#263238"/>
<path d="M137.44 158.666C137.444 159.97 137.818 161.247 138.518 162.348C139.454 163.778 140.558 163.231 140.831 161.712C141.079 160.379 140.893 158.021 139.701 157.102C138.509 156.184 137.458 157.085 137.44 158.666Z" fill="#E58A7B"/>
<path d="M119.876 148.528C118.887 145.746 123.603 141.463 133.581 143.23C143.56 144.996 143.993 153.305 143.993 153.305L141.979 150.903L142.068 153.429L131.815 155.398L119.876 148.528Z" fill="#263238"/>
<path d="M120.724 179.303C120.665 178.9 120.766 178.489 121.005 178.159C121.244 177.829 121.603 177.606 122.004 177.537C125.113 177.024 132.177 175.982 135.727 176.477C138.376 176.848 139.065 178.384 139.18 179.647C139.198 179.868 139.168 180.091 139.093 180.299C139.018 180.508 138.899 180.698 138.744 180.857C138.59 181.016 138.403 181.14 138.196 181.221C137.989 181.302 137.768 181.337 137.546 181.325L122.199 180.636C121.837 180.618 121.492 180.475 121.224 180.232C120.955 179.989 120.778 179.661 120.724 179.303Z" fill="#4CAF4F"/>
<path opacity="0.6" d="M120.724 179.303C120.665 178.9 120.766 178.489 121.005 178.159C121.244 177.829 121.603 177.606 122.004 177.537C125.113 177.024 132.177 175.982 135.727 176.477C138.376 176.848 139.065 178.384 139.18 179.647C139.198 179.868 139.168 180.091 139.093 180.299C139.018 180.508 138.899 180.698 138.744 180.857C138.59 181.016 138.403 181.14 138.196 181.221C137.989 181.302 137.768 181.337 137.546 181.325L122.199 180.636C121.837 180.618 121.492 180.475 121.224 180.232C120.955 179.989 120.778 179.661 120.724 179.303Z" fill="black"/>
<path d="M129.599 333.574L135.295 337.53L144.823 324.611L139.127 320.664L129.599 333.574Z" fill="#E58A7B"/>
<path d="M116.317 333.318L122.331 336.745L130.764 323.084L124.751 319.657L116.317 333.318Z" fill="#E58A7B"/>
<path d="M144.814 324.611L139.904 331.27L134.208 327.322L139.118 320.664L144.814 324.611Z" fill="#CF6F64"/>
<path d="M124.742 319.657L130.764 323.092L126.42 330.13L120.397 326.695L124.742 319.657Z" fill="#CF6F64"/>
<path d="M134.403 222.432C134.403 222.432 156.638 250.451 152.461 277.252C149.097 298.896 129.581 328.205 129.581 328.205L120.406 323.649C126.873 310.69 132.392 297.279 136.919 283.522C138.315 279.251 138.723 274.719 138.111 270.267C137.499 265.815 135.884 261.561 133.387 257.825C122.119 241.373 104.069 251.167 116.211 222.432H134.403Z" fill="#4CAF4F"/>
<path opacity="0.6" d="M134.403 222.432C134.403 222.432 156.638 250.451 152.461 277.252C149.097 298.896 129.581 328.205 129.581 328.205L120.406 323.649C126.873 310.69 132.392 297.279 136.919 283.522C138.315 279.251 138.723 274.719 138.111 270.267C137.499 265.815 135.884 261.561 133.387 257.825C122.119 241.373 104.069 251.167 116.211 222.432H134.403Z" fill="black"/>
<path opacity="0.4" d="M145.309 240.429L142.076 237.214C142.076 237.47 148.337 276.122 150.095 286.984C151.132 283.811 151.926 280.564 152.47 277.27C154.537 264.121 150.218 250.69 145.309 240.429Z" fill="black"/>
<path d="M144.328 222.432C144.328 222.432 171.103 257.648 171.862 278.762C172.489 296.424 142.721 330.643 142.721 330.643L134.067 325.044C134.067 325.044 151.49 300.742 155.879 280.891C154.183 261.216 118.331 222.432 118.331 222.432H144.328Z" fill="#4CAF4F"/>
<path opacity="0.6" d="M144.328 222.432C144.328 222.432 171.103 257.648 171.862 278.762C172.489 296.424 142.721 330.643 142.721 330.643L134.067 325.044C134.067 325.044 151.49 300.742 155.879 280.891C154.183 261.216 118.331 222.432 118.331 222.432H144.328Z" fill="black"/>
<path d="M111.204 180.407C108.343 181.087 105.597 191.489 105.597 191.489L116.785 198.96C116.785 198.96 120.512 190.73 119.205 187.127C117.854 183.374 114.799 179.55 111.204 180.407Z" fill="#4CAF4F"/>
<path opacity="0.2" d="M113.394 187.109L112.617 196.178L116.777 198.969C117.925 196.383 118.775 193.675 119.311 190.897L113.394 187.109Z" fill="black"/>
<path d="M147.64 180.61C147.64 180.61 150.942 181.766 144.328 222.423H116.194C116.671 210.943 116.679 203.878 111.204 180.407C115.144 179.595 119.137 179.069 123.152 178.835C127.406 178.53 131.676 178.53 135.93 178.835C141.423 179.338 147.64 180.61 147.64 180.61Z" fill="#4CAF4F"/>
<path d="M150.501 187.109C151.137 188.875 151.808 190.774 152.514 192.602C153.221 194.43 153.892 196.311 154.607 198.165L156.771 203.711L157.318 205.097L157.601 205.786L157.733 206.13C157.733 206.192 157.733 206.192 157.733 206.183C157.572 205.956 157.36 205.768 157.115 205.636C156.766 205.43 156.372 205.312 155.967 205.291C155.631 205.281 155.296 205.344 154.987 205.477C154.581 205.662 154.581 205.742 154.589 205.733C154.663 205.674 154.728 205.606 154.784 205.53C155.273 204.888 155.696 204.199 156.047 203.472C156.462 202.66 156.859 201.794 157.256 200.92C158.033 199.154 158.749 197.326 159.464 195.48C160.179 193.635 160.859 191.772 161.522 189.891L163.535 184.257L166.935 185.14C166.264 189.167 165.398 193.087 164.356 197.079C163.853 199.066 163.261 201.035 162.59 203.022C162.254 204.02 161.884 205.009 161.46 206.024C161.018 207.126 160.474 208.185 159.835 209.186C159.6 209.523 159.34 209.841 159.058 210.139C158.607 210.626 158.06 211.014 157.451 211.279C156.91 211.51 156.325 211.619 155.737 211.596C155.079 211.572 154.438 211.38 153.874 211.04C153.209 210.625 152.657 210.052 152.267 209.371C152.135 209.142 152.02 208.912 151.94 208.744L151.772 208.409L151.437 207.72L150.766 206.351C149.883 204.514 149 202.66 148.231 200.797C147.463 198.933 146.651 197.044 145.891 195.145C145.132 193.246 144.452 191.348 143.807 189.299L150.501 187.109Z" fill="#E58A7B"/>
<path d="M147.64 180.61C151.022 181.413 154.828 191.41 154.828 191.41L144.77 199.966C144.77 199.966 138.262 189.069 139.577 185.475C140.946 181.731 143.224 179.559 147.64 180.61Z" fill="#4CAF4F"/>
<path d="M165.133 181.095L168.666 178.146L171.121 181.97L169.31 185.157C169.31 185.157 166.431 187.807 163.888 186.456C163.485 185.548 163.388 184.534 163.612 183.567C163.837 182.6 164.371 181.732 165.133 181.095Z" fill="#E58A7B"/>
<path d="M175.041 178.155L174.776 179.117L169.187 180.053L168.639 178.146L175.041 178.155Z" fill="#E58A7B"/>
<path d="M143.41 331.093L133.325 324.576L135.136 321.432L146.465 328.4L143.41 331.093Z" fill="#4CAF4F"/>
<path d="M126.278 336.285C125.394 336.177 124.543 335.876 123.788 335.402C123.757 335.391 123.73 335.371 123.711 335.344C123.692 335.317 123.681 335.285 123.681 335.252C123.681 335.219 123.692 335.187 123.711 335.16C123.73 335.133 123.757 335.113 123.788 335.102C124.062 335.014 126.437 334.281 127.126 334.846C127.204 334.91 127.262 334.994 127.297 335.089C127.331 335.184 127.339 335.286 127.32 335.385C127.308 335.544 127.255 335.697 127.167 335.83C127.079 335.963 126.959 336.071 126.817 336.144C126.652 336.234 126.467 336.283 126.278 336.285ZM124.292 335.314C125.395 335.879 126.278 336.082 126.702 335.87C126.795 335.819 126.872 335.745 126.928 335.656C126.984 335.566 127.015 335.464 127.02 335.358C127.02 335.217 127.02 335.155 126.941 335.12C126.57 334.819 125.245 335.049 124.274 335.314H124.292Z" fill="#263238"/>
<path d="M123.85 335.464C123.803 335.463 123.759 335.444 123.726 335.411C123.713 335.387 123.706 335.359 123.706 335.332C123.706 335.304 123.713 335.277 123.726 335.252C123.726 335.173 124.3 333.256 125.201 332.824C125.316 332.771 125.441 332.744 125.568 332.744C125.694 332.744 125.819 332.771 125.934 332.824C126.058 332.863 126.165 332.942 126.239 333.05C126.313 333.157 126.348 333.286 126.34 333.415C126.278 334.21 124.662 335.305 123.921 335.491L123.85 335.464ZM125.563 333.053C125.477 333.056 125.393 333.077 125.316 333.115C124.768 333.38 124.318 334.413 124.097 335.04C124.874 334.713 125.943 333.848 125.978 333.362C125.978 333.283 125.978 333.186 125.775 333.097C125.709 333.062 125.637 333.038 125.563 333.027V333.053Z" fill="#263238"/>
<path d="M138.88 340.1C137.882 340.1 136.495 338.82 135.736 338.034C135.717 338.007 135.706 337.974 135.706 337.941C135.706 337.908 135.717 337.875 135.736 337.848C135.753 337.82 135.778 337.797 135.808 337.781C135.837 337.766 135.87 337.758 135.904 337.76C136.257 337.76 139.321 338.219 139.754 339.085C139.8 339.162 139.824 339.251 139.824 339.341C139.824 339.431 139.8 339.519 139.754 339.597C139.689 339.732 139.591 339.848 139.469 339.934C139.347 340.021 139.205 340.075 139.056 340.091L138.88 340.1ZM136.319 338.157C137.431 339.235 138.412 339.835 138.968 339.765C139.065 339.752 139.158 339.715 139.238 339.658C139.318 339.602 139.383 339.526 139.427 339.438C139.447 339.408 139.458 339.372 139.458 339.336C139.458 339.3 139.447 339.265 139.427 339.235C139.198 338.758 137.564 338.352 136.319 338.157Z" fill="#263238"/>
<path d="M136.416 338.113C136.218 338.119 136.02 338.104 135.824 338.069C135.797 338.065 135.771 338.054 135.75 338.037C135.728 338.02 135.711 337.997 135.701 337.972C135.688 337.946 135.681 337.917 135.681 337.888C135.681 337.859 135.688 337.83 135.701 337.804C135.754 337.742 136.946 336.303 138.076 336.206C138.396 336.181 138.713 336.282 138.959 336.488C139.304 336.789 139.286 337.054 139.198 337.221C138.977 337.822 137.449 338.113 136.416 338.113ZM136.186 337.787C137.175 337.84 138.756 337.513 138.959 337.08C138.959 337.08 139.03 336.939 138.8 336.745C138.709 336.665 138.602 336.605 138.487 336.569C138.371 336.532 138.25 336.52 138.129 336.533C137.368 336.745 136.69 337.186 136.186 337.795V337.787Z" fill="#263238"/>
<path d="M124.088 334.51L116.6 332.391C116.471 332.352 116.332 332.362 116.21 332.419C116.088 332.476 115.991 332.576 115.938 332.7L113.412 338.378C113.353 338.524 113.325 338.68 113.33 338.837C113.336 338.994 113.374 339.148 113.444 339.289C113.513 339.43 113.611 339.555 113.732 339.655C113.853 339.755 113.994 339.829 114.145 339.871C116.794 340.559 118.066 340.754 121.36 341.699C123.391 342.264 126.287 343.315 129.087 344.109C131.886 344.904 132.822 342.175 131.736 341.593C126.826 338.996 126.437 337.177 125.095 335.234C124.855 334.883 124.498 334.626 124.088 334.51Z" fill="#4CAF4F"/>
<path d="M135.939 337.001L129.546 332.585C129.437 332.506 129.304 332.47 129.17 332.483C129.037 332.496 128.913 332.558 128.822 332.656L124.583 337.213C124.48 337.33 124.403 337.469 124.357 337.619C124.311 337.768 124.298 337.926 124.318 338.082C124.338 338.237 124.391 338.386 124.473 338.52C124.555 338.653 124.665 338.767 124.795 338.855C127.047 340.365 128.212 340.974 131.029 342.926C132.795 344.127 136.213 346.794 138.597 348.454C140.981 350.114 142.756 347.836 141.909 346.935C138.111 342.882 137.281 340.339 136.654 338.034C136.546 337.616 136.292 337.25 135.939 337.001Z" fill="#4CAF4F"/>
<path d="M130.756 328.788L119.232 323.057L120.424 319.931L132.734 325.971L130.756 328.788Z" fill="#4CAF4F"/>
<path d="M115.77 220.771L114.799 223.315C114.701 223.509 114.931 223.712 115.258 223.712H144.47C144.726 223.712 144.938 223.588 144.955 223.43L145.202 220.904C145.202 220.736 144.999 220.586 144.726 220.586H116.229C116.143 220.578 116.057 220.591 115.977 220.623C115.897 220.655 115.826 220.706 115.77 220.771Z" fill="#4CAF4F"/>
<path opacity="0.4" d="M115.77 220.771L114.799 223.315C114.701 223.509 114.931 223.712 115.258 223.712H144.47C144.726 223.712 144.938 223.588 144.955 223.43L145.202 220.904C145.202 220.736 144.999 220.586 144.726 220.586H116.229C116.143 220.578 116.057 220.591 115.977 220.623C115.897 220.655 115.826 220.706 115.77 220.771Z" fill="white"/>
<path d="M120.371 223.959H119.602C119.452 223.959 119.338 223.88 119.346 223.783L119.708 220.507C119.708 220.418 119.85 220.339 120 220.339H120.768C120.918 220.339 121.033 220.418 121.024 220.507L120.662 223.783C120.653 223.88 120.521 223.959 120.371 223.959Z" fill="#4CAF4F"/>
<path d="M138.385 223.959H137.626C137.476 223.959 137.361 223.88 137.37 223.783L137.723 220.507C137.723 220.418 137.873 220.339 138.023 220.339H138.783C138.933 220.339 139.056 220.418 139.039 220.507L138.686 223.783C138.641 223.88 138.544 223.959 138.385 223.959Z" fill="#4CAF4F"/>
<g style="mix-blend-mode:multiply">
<path d="M119.7 373.507C132.765 373.507 143.357 372.74 143.357 371.793C143.357 370.847 132.765 370.08 119.7 370.08C106.634 370.08 96.0422 370.847 96.0422 371.793C96.0422 372.74 106.634 373.507 119.7 373.507Z" fill="#F5F5F5"/>
</g>
<path d="M134.111 369.374C129.925 368.155 125.281 366.592 122.472 364.958C122.393 364.905 122.305 364.879 122.225 364.835V345.884H130.694C131.337 345.846 131.941 345.564 132.382 345.095C132.824 344.627 133.07 344.007 133.07 343.363C133.07 342.719 132.824 342.099 132.382 341.631C131.941 341.162 131.337 340.88 130.694 340.842H122.269V254.46H117.183V340.842H108.767C108.424 340.822 108.079 340.872 107.756 340.989C107.432 341.107 107.136 341.289 106.886 341.525C106.635 341.761 106.436 342.046 106.299 342.362C106.163 342.678 106.092 343.019 106.092 343.363C106.092 343.707 106.163 344.048 106.299 344.364C106.436 344.68 106.635 344.965 106.886 345.201C107.136 345.437 107.432 345.619 107.756 345.737C108.079 345.854 108.424 345.905 108.767 345.884H117.183V364.808C117.103 364.808 117.024 364.879 116.944 364.932C114.092 366.592 109.482 368.155 105.297 369.347C105.014 369.433 104.771 369.617 104.612 369.866C104.453 370.115 104.389 370.412 104.431 370.705C104.472 370.997 104.617 371.265 104.839 371.46C105.061 371.655 105.346 371.764 105.641 371.767H133.767C134.049 371.748 134.316 371.632 134.524 371.44C134.731 371.247 134.866 370.99 134.906 370.71C134.947 370.43 134.89 370.144 134.745 369.901C134.6 369.658 134.377 369.472 134.111 369.374Z" fill="#E0E0E0"/>
<path d="M135.409 245.665H104.008C101.481 245.665 99.4332 247.713 99.4332 250.239V259.573C99.4332 262.1 101.481 264.148 104.008 264.148H135.409C137.936 264.148 139.984 262.1 139.984 259.573V250.239C139.984 247.713 137.936 245.665 135.409 245.665Z" fill="#4CAF4F"/>
<path d="M103.716 264.156V265.764C103.716 267.088 105.155 268.166 106.922 268.166H132.531C134.297 268.166 135.736 267.088 135.736 265.764V264.156H103.716Z" fill="#4CAF4F"/>
<path opacity="0.3" d="M103.716 264.156V265.764C103.716 267.088 105.155 268.166 106.922 268.166H132.531C134.297 268.166 135.736 267.088 135.736 265.764V264.156H103.716Z" fill="white"/>
</svg>
